<svg width="304" height="276" viewBox="0 0 304 276" fill="none" xmlns="http://www.w3.org/2000/svg">
    <path d="M194.087 154.721H172.11V88.8196H194.087V154.721ZM194.087 209.639V264.557C194.087 267.47 192.929 270.264 190.869 272.324C188.808 274.384 186.013 275.541 183.098 275.541H117.166C114.251 275.541 111.456 274.384 109.395 272.324C107.335 270.264 106.177 267.47 106.177 264.557V209.639H128.154V253.574H172.11V209.639H194.087ZM106.177 154.721V88.8196H128.154V154.721H106.177ZM194.087 33.9016H172.11V-10.0328H128.154V33.9016H106.177V-21.0164C106.177 -23.9294 107.335 -26.7232 109.395 -28.783C111.456 -30.8428 114.251 -32 117.166 -32H183.098C186.013 -32 188.808 -30.8428 190.869 -28.783C192.929 -26.7232 194.087 -23.9294 194.087 -21.0164V33.9016Z" fill="#F58634"/>
    <path d="M50.1338 33.9016L25.6728 61.3606L50.1119 88.8196H238.042V33.9016H50.1338ZM45.1889 11.9344H249.031C251.945 11.9344 254.741 13.0916 256.801 15.1515C258.862 17.2113 260.02 20.005 260.02 22.918V99.8032C260.02 102.716 258.862 105.51 256.801 107.57C254.741 109.63 251.945 110.787 249.031 110.787H45.1889C43.6357 110.787 42.1 110.459 40.6832 109.822C39.2664 109.186 38.0006 108.257 36.9693 107.096L2.77211 68.6538C0.986307 66.6437 0 64.0488 0 61.3606C0 58.6725 0.986307 56.0776 2.77211 54.0675L36.9693 15.6249C38.0006 14.4641 39.2664 13.535 40.6832 12.8989C42.1 12.2627 43.6357 11.934 45.1889 11.9344ZM278.283 182.18L253.866 209.639H65.9357V154.721H253.844L278.283 182.18ZM258.789 132.754H54.9689C52.0545 132.754 49.2594 133.911 47.1987 135.971C45.1379 138.031 43.9801 140.825 43.9801 143.738V220.623C43.9801 223.536 45.1379 226.33 47.1987 228.389C49.2594 230.449 52.0545 231.606 54.9689 231.606H258.811C260.364 231.607 261.9 231.278 263.317 230.642C264.734 230.006 265.999 229.077 267.031 227.916L301.228 189.473C303.014 187.463 304 184.868 304 182.18C304 179.492 303.014 176.897 301.228 174.887L267.031 136.445C265.999 135.284 264.734 134.355 263.317 133.718C261.9 133.082 260.364 132.754 258.811 132.754H258.789Z" fill="#F58634"/>
    <path d="M47.1422 32.5174H238.411V89.7506H47.1422L22.9043 61.674L47.1422 32.5174Z" fill="black"/>
    <path d="M255.01 154.268H65.589V210.461H255.01L279.014 182.894L255.01 154.268Z" fill="black"/>
    <path d="M47.1422 32.5174H238.411V60.6137H148.356H59.8632H22.9043L47.1422 32.5174Z" fill="#8B8989" fill-opacity="0.38"/>
    <path d="M255.069 154.268H65.5891V181.324H73.8571H84.7088H107.962H154.987H166.355H178.757H202.011H249.551H277.973L255.069 154.268Z" fill="#8B8989" fill-opacity="0.38"/>
</svg>
