<svg width="381" height="308" viewBox="0 0 381 308" fill="none" xmlns="http://www.w3.org/2000/svg">
    <g filter="url(#filter0_d_258_5)">
        <path d="M302.476 111.444C302.476 196.742 234.765 265.889 151.238 265.889C67.7116 265.889 0 196.742 0 111.444C0 26.1472 67.7116 -43 151.238 -43C234.765 -43 302.476 26.1472 302.476 111.444Z" fill="#F58634"/>
        <path d="M224.418 187.039L236.028 172.421L381 288.382L369.39 303L224.418 187.039Z" fill="#F58634"/>
    </g>
    <ellipse cx="159.5" cy="112" rx="122.5" ry="123" fill="black"/>
    <path d="M281 -48C281 3.91477 224.903 46 155.704 46C86.5049 46 21 3.91479 21 -48C103.922 -47.9999 100.967 -48 141.554 -48C210.753 -48 193.297 -48 281 -48Z" fill="#D9D9D9" fill-opacity="0.24"/>
    <defs>
        <filter id="filter0_d_258_5" x="0" y="-43" width="389" height="351" filterUnits="userSpaceOnUse" color-interpolation-filters="sRGB">
            <feFlood flood-opacity="0" result="BackgroundImageFix"/>
            <feColorMatrix in="SourceAlpha" type="matrix" values="0 0 0 0 0 0 0 0 0 0 0 0 0 0 0 0 0 0 127 0" result="hardAlpha"/>
            <feOffset dx="6" dy="3"/>
            <feGaussianBlur stdDeviation="1"/>
            <feComposite in2="hardAlpha" operator="out"/>
            <feColorMatrix type="matrix" values="0 0 0 0 0 0 0 0 0 0 0 0 0 0 0 0 0 0 0.25 0"/>
            <feBlend mode="normal" in2="BackgroundImageFix" result="effect1_dropShadow_258_5"/>
            <feBlend mode="normal" in="SourceGraphic" in2="effect1_dropShadow_258_5" result="shape"/>
        </filter>
    </defs>
</svg>
