<svg width="306" height="309" viewBox="0 0 306 309" fill="none" xmlns="http://www.w3.org/2000/svg">
    <g filter="url(#filter0_d_253_40)">
        <path d="M229.671 168.574C216.129 168.574 203.683 173.378 193.857 181.41L132.469 142.062C134.287 133.629 134.287 124.89 132.469 116.456L193.857 77.1083C203.683 85.1414 216.129 89.9446 229.671 89.9446C261.429 89.9446 287.174 63.5416 287.174 30.9723C287.174 -1.59699 261.429 -28 229.671 -28C197.913 -28 172.168 -1.59699 172.168 30.9723C172.168 35.3694 172.641 39.6523 173.531 43.7748L112.143 83.1229C102.317 75.0904 89.871 70.2872 76.329 70.2872C44.571 70.2872 18.8257 96.6902 18.8257 129.259C18.8257 161.829 44.571 188.232 76.329 188.232C89.871 188.232 102.317 183.429 112.143 175.396L173.531 214.744C172.624 218.948 172.167 223.241 172.168 227.547C172.168 260.116 197.913 286.519 229.671 286.519C261.429 286.519 287.174 260.116 287.174 227.547C287.174 194.977 261.429 168.574 229.671 168.574Z" fill="black"/>
        <path d="M193.54 172.892C203.837 165.758 216.276 161.574 229.671 161.574C265.461 161.574 294.174 191.279 294.174 227.547C294.174 263.814 265.461 293.519 229.671 293.519C193.882 293.519 165.169 263.816 165.168 227.549L193.54 172.892ZM193.54 172.892L140.174 138.686C141.052 132.434 141.052 126.085 140.174 119.832L193.54 85.6264C203.837 92.7605 216.276 96.9446 229.671 96.9446C265.461 96.9446 294.174 67.2401 294.174 30.9723C294.174 -5.29548 265.461 -35 229.671 -35C193.882 -35 165.168 -5.29548 165.168 30.9723C165.168 34.1721 165.393 37.3195 165.825 40.3995L112.46 74.6048C102.163 67.4713 89.7245 63.2872 76.329 63.2872C40.5396 63.2872 11.8257 92.9917 11.8257 129.259C11.8257 165.527 40.5396 195.232 76.329 195.232C89.7245 195.232 102.163 191.048 112.46 183.914L165.825 218.12C165.387 221.24 165.167 224.39 165.168 227.547L193.54 172.892Z" stroke="#F58634" stroke-width="14"/>
    </g>
    <defs>
        <filter id="filter0_d_253_40" x="0.825684" y="-42" width="304.349" height="350.519" filterUnits="userSpaceOnUse" color-interpolation-filters="sRGB">
            <feFlood flood-opacity="0" result="BackgroundImageFix"/>
            <feColorMatrix in="SourceAlpha" type="matrix" values="0 0 0 0 0 0 0 0 0 0 0 0 0 0 0 0 0 0 127 0" result="hardAlpha"/>
            <feOffset dy="4"/>
            <feGaussianBlur stdDeviation="2"/>
            <feComposite in2="hardAlpha" operator="out"/>
            <feColorMatrix type="matrix" values="0 0 0 0 0 0 0 0 0 0 0 0 0 0 0 0 0 0 0.25 0"/>
            <feBlend mode="normal" in2="BackgroundImageFix" result="effect1_dropShadow_253_40"/>
            <feBlend mode="normal" in="SourceGraphic" in2="effect1_dropShadow_253_40" result="shape"/>
        </filter>
    </defs>
</svg>
